<?xml version="1.0" encoding="UTF-8" standalone="no"?>
<!DOCTYPE svg PUBLIC "-//W3C//DTD SVG 1.1//EN" "http://www.w3.org/Graphics/SVG/1.1/DTD/svg11.dtd">
<svg width="100%" height="100%" viewBox="0 0 258 214" version="1.1" xmlns="http://www.w3.org/2000/svg" xmlns:xlink="http://www.w3.org/1999/xlink" xml:space="preserve" xmlns:serif="http://www.serif.com/" style="fill-rule:evenodd;clip-rule:evenodd;stroke-linecap:round;stroke-linejoin:round;stroke-miterlimit:1.5;">
    <g transform="matrix(1,0,0,1,-617.138,-265.227)">
        <g id="Logo--linework-" serif:id="Logo (linework)" transform="matrix(1.0292,0,0,1.08432,609.631,7.59208)">
            <rect x="7.294" y="237.6" width="249.759" height="197.174" style="fill:none;"/>
            <g id="Logo--lined-" serif:id="Logo (lined)" transform="matrix(0.971624,0,0,0.922235,-535.528,-252.421)">
                <g transform="matrix(0.946718,0,0,0.895556,-0.661616,68.3304)">
                    <path d="M715.08,529.796L715.165,542.191L730.615,541.946L730.062,529.809C745.499,530.55 759.312,534.191 771.747,540.293C804.945,531.204 830.7,532.691 832.635,535.123C836.089,539.464 843.765,561.961 824.705,589.951C835.228,610.434 834.525,669.786 833.957,670.549C838.066,672.945 848.538,680.315 851.536,687.581C858.66,704.847 852.793,728.038 836.241,739.149C834.906,740.045 804.775,737.287 804.775,737.287C804.775,737.287 778.98,749.523 761.221,738.039C759.27,736.777 760.225,732.807 760.225,732.807C740.94,735.871 721.753,736.503 704.871,733.569C704.871,733.569 708.144,738.91 702.34,740.477C697.644,741.745 658.027,746.136 652.768,733.143C652.719,733.023 607.731,732.352 607.077,731.23C601.934,722.411 596.315,709.613 599.181,693.656C601.68,679.744 629.356,664.136 629.356,664.136C627.737,647.156 629.966,608.52 637.427,589.291C622.323,572.6 613.8,554.648 617.043,540.667C618.42,534.731 654.992,529.053 678.463,542.53C689.623,534.166 702.025,530.695 715.08,529.796Z" style="fill:none;stroke:rgb(0,11,90);stroke-width:5.97px;"/>
                </g>
                <g transform="matrix(0.946718,0,0,0.895556,-0.661616,68.3304)">
                    <path d="M715.08,529.796L715.165,542.191L730.615,541.946L730.062,529.809C745.499,530.55 759.312,534.191 771.747,540.293C804.945,531.204 830.7,532.691 832.635,535.123C836.089,539.464 843.765,561.961 824.705,589.951C837.968,653.155 829.209,723.345 804.775,737.287C804.775,737.287 778.98,749.523 761.221,738.039C759.27,736.777 763.01,710.808 763.01,710.808C744.946,716.205 717.585,717.212 699.373,711.737C699.373,711.737 708.144,738.91 702.34,740.477C697.644,741.745 667.46,744.594 658.705,738.083C638.544,723.089 632.973,694.159 629.289,663.852C627.607,650.012 629.966,608.52 637.427,589.291C622.323,572.6 613.8,554.648 617.043,540.667C618.42,534.731 654.992,529.053 678.463,542.53C689.623,534.166 702.025,530.695 715.08,529.796Z" style="fill:none;stroke:rgb(0,11,90);stroke-width:5.97px;"/>
                </g>
                <g transform="matrix(1.4923,0,0,1.39686,-113.183,-238.487)">
                    <path d="M527.182,620.299C539.895,620.213 554.46,629.89 554.46,639.68C554.46,649.47 543.771,654.929 529.123,654.929C514.474,654.929 501.513,648.127 501.513,638.336C501.513,628.546 514.349,620.386 527.182,620.299Z" style="fill:none;stroke:rgb(0,11,90);stroke-width:3.81px;"/>
                </g>
                <g transform="matrix(1.50913,0.185298,-0.140445,1.14383,28.0377,-147.248)">
                    <ellipse cx="476.16" cy="620.791" rx="1.8" ry="7.195" style="fill:rgb(0,11,90);stroke:rgb(0,11,90);stroke-width:4.08px;"/>
                </g>
                <g transform="matrix(1.50913,-0.185298,0.140445,1.14383,-121.436,29.2342)">
                    <ellipse cx="476.16" cy="620.791" rx="1.8" ry="7.195" style="fill:rgb(0,11,90);stroke:rgb(0,11,90);stroke-width:4.08px;"/>
                </g>
                <g transform="matrix(1,0,0,1,-571.829,1.85545)">
                    <path d="M1201.69,600.367C1212.41,594.18 1223.71,593.663 1226.91,599.213C1230.12,604.762 1224.02,614.291 1213.3,620.477C1202.59,626.664 1191.29,627.182 1188.08,621.632C1184.88,616.082 1190.98,606.554 1201.69,600.367ZM1202.69,615.326C1205.28,613.869 1208.05,613.869 1208.86,615.326C1209.68,616.782 1208.25,619.147 1205.65,620.603C1203.06,622.06 1200.3,622.06 1199.48,620.603C1198.66,619.147 1200.1,616.782 1202.69,615.326ZM1194.18,613.482C1195.63,612.666 1197.31,612.899 1197.93,614.001C1198.55,615.104 1197.88,616.662 1196.43,617.477C1194.98,618.293 1193.3,618.06 1192.67,616.958C1192.06,615.855 1192.73,614.297 1194.18,613.482ZM1210.09,597.795C1214.13,595.52 1218.61,595.798 1220.08,598.416C1221.55,601.034 1219.46,605.006 1215.42,607.281C1211.37,609.555 1206.89,609.277 1205.42,606.659C1203.95,604.041 1206.04,600.069 1210.09,597.795Z" style="fill:rgb(0,11,90);"/>
                </g>
                <g transform="matrix(-1,0,0,1,1924.36,1.85545)">
                    <path d="M1201.69,600.367C1212.41,594.18 1223.71,593.663 1226.91,599.213C1230.12,604.762 1224.02,614.291 1213.3,620.477C1202.59,626.664 1191.29,627.182 1188.08,621.632C1184.88,616.082 1190.98,606.554 1201.69,600.367ZM1202.69,615.326C1205.28,613.869 1208.05,613.869 1208.86,615.326C1209.68,616.782 1208.25,619.147 1205.65,620.603C1203.06,622.06 1200.3,622.06 1199.48,620.603C1198.66,619.147 1200.1,616.782 1202.69,615.326ZM1194.18,613.482C1195.63,612.666 1197.31,612.899 1197.93,614.001C1198.55,615.104 1197.88,616.662 1196.43,617.477C1194.98,618.293 1193.3,618.06 1192.67,616.958C1192.06,615.855 1192.73,614.297 1194.18,613.482ZM1210.09,597.795C1214.13,595.52 1218.61,595.798 1220.08,598.416C1221.55,601.034 1219.46,605.006 1215.42,607.281C1211.37,609.555 1206.89,609.277 1205.42,606.659C1203.95,604.041 1206.04,600.069 1210.09,597.795Z" style="fill:rgb(0,11,90);"/>
                </g>
                <g transform="matrix(1,0,0,1.03397,201.505,21.7173)">
                    <path d="M488.113,661.539C536.079,660.109 541.436,634.253 544.126,640.917C544.126,640.917 542.005,666.264 488.02,666.718C432.485,667.185 421.6,641.966 421.6,641.966C419.367,635.692 440.62,662.956 488.113,661.539Z" style="fill:rgb(0,11,90);"/>
                </g>
                <g transform="matrix(0.428956,-0.903325,0.903325,0.428956,-148.978,820.302)">
                    <path d="M552.887,555.83C562.811,563.552 570.305,588.972 569.329,601.743C562.221,592.003 555.89,563.175 552.166,564.119C542.547,566.557 542.718,581.714 538.288,580.291C538.89,567.988 541.566,561.571 552.887,555.83Z" style="fill:rgb(0,11,90);"/>
                </g>
                <g transform="matrix(-0.428956,-0.903325,-0.903325,0.428956,1523.25,820.302)">
                    <path d="M556.223,557.297C562.878,567.594 567.489,583.648 572.164,604.019C564.454,596.064 556.876,565.12 553.034,565.134C546.491,565.158 536.776,574.862 532.109,578.105C540.519,564.82 546.457,560.008 556.223,557.297Z" style="fill:rgb(0,11,90);"/>
                </g>
                <g transform="matrix(-0.176714,0,0,1.53051,794.947,-337.231)">
                    <path d="M1167.45,655.077L1126.26,653.664C1141.34,660.168 1101.13,672.582 1062.76,684.845L1002.35,693.941L1237.51,693.941C1299.25,687.761 1287.06,678.702 1281.98,667.938L1167.45,655.077Z" style="fill:rgb(0,11,90);"/>
                </g>
                <g transform="matrix(0.194754,0,0,1.53051,567.933,-332.604)">
                    <path d="M1167.45,655.077L1112.71,655.077L1062.76,684.845L1020.73,692.597L1167.45,693.941C1229.19,687.761 1239.41,678.046 1234.33,667.282L1167.45,655.077Z" style="fill:rgb(0,11,90);"/>
                </g>
                <g transform="matrix(0.99441,0,0,0.478364,-441.224,394.961)">
                    <rect x="1112.71" y="655.077" width="54.745" height="38.864" style="fill:rgb(0,11,90);"/>
                </g>
            </g>
        </g>
    </g>
</svg>
